PathFileType	4	(X/Y/Z)	C:\Users\u0145647\OneDrive - KU Leuven\KU Leuven\c3d2osim\CP16\T0\Data\Processed\ViconC3D\CP16_T0_11_gapFilled.trc
DataRate	CameraRate	NumFrames	NumMarkers	Units	OrigDataRate	OrigDataStartFrame	OrigNumFrames
100.000000	100.000000	6	47	mm	100.000000	500	666
Frame#	Time	C7			T10			CLAV			STRN			LSHO			RSHO			RBAK			LASI			RASI			LPSI			RPSI			LLAT			RLAT			LF1			LF2			LF3			LTHI			LKNE			LMEK			RF1			RF2			RF3			RTHI			RKNE			RMEK			LT1			LT2			LT3			LTIB			LMM			LANK			RT1			RT2			RT3			RTIB			RANK			RMM			LHEE			LSTL			LLCA			LTOE			LCM5			RHEE			RSTL			RLCA			RTOE			RCM5
		X1	Y1	Z1	X2	Y2	Z2	X3	Y3	Z3	X4	Y4	Z4	X5	Y5	Z5	X6	Y6	Z6	X7	Y7	Z7	X8	Y8	Z8	X9	Y9	Z9	X10	Y10	Z10	X11	Y11	Z11	X12	Y12	Z12	X13	Y13	Z13	X14	Y14	Z14	X15	Y15	Z15	X16	Y16	Z16	X17	Y17	Z17	X18	Y18	Z18	X19	Y19	Z19	X20	Y20	Z20	X21	Y21	Z21	X22	Y22	Z22	X23	Y23	Z23	X24	Y24	Z24	X25	Y25	Z25	X26	Y26	Z26	X27	Y27	Z27	X28	Y28	Z28	X29	Y29	Z29	X30	Y30	Z30	X31	Y31	Z31	X32	Y32	Z32	X33	Y33	Z33	X34	Y34	Z34	X35	Y35	Z35	X36	Y36	Z36	X37	Y37	Z37	X38	Y38	Z38	X39	Y39	Z39	X40	Y40	Z40	X41	Y41	Z41	X42	Y42	Z42	X43	Y43	Z43	X44	Y44	Z44	X45	Y45	Z45	X46	Y46	Z46	X47	Y47	Z47

500	4.99	2177.9	1453.2	-216.97	2109.3	1175.3	-227.05	2306.4	1357.7	-196.74	2325.2	1187.6	-201.46	2254.3	1372.9	-390.33	2217.5	1377.2	-19.558	2123.2	1361.7	-91.163	2296.3	930.35	-346.23	2284.3	913.44	-99.575	2129.3	949.73	-279.12	2126.7	939.9	-200.45	2228	1004.9	-367.71	2215.9	989.04	-83.022	2343.1	705.17	-389.44	2337.5	753.51	-388.93	2301.9	726.3	-397.21	2402.7	627.07	-418.64	2438.7	504.44	-351.33	2415.7	498.35	-235.99	2195.2	680	-75.785	2176.6	718.98	-76.033	2216.3	719.82	-74.704	2172.9	589.58	-40.029	2148.6	441.81	-110.65	2157.9	452.3	-230.19	2430.5	421.98	-364.04	2463.3	411.01	-343.49	2442.3	374.83	-360.57	2471.7	299.02	-401.14	2403.8	99.654	-284.48	2415.4	92.04	-377.25	2064.9	324.09	-123.08	2073.7	360.55	-113.13	2101.7	335.95	-124.32	2023.6	237.13	-99.197	1901.9	121	-166.9	1913	133.64	-258.21	NaN	NaN	NaN	2423.1	68.606	-287.68	2429.2	57.858	-378.22	2531.1	57.131	-344.27	2513.7	36.595	-387.44	1842.7	145.8	-202.82	1906.8	98.11	-261.11	1906.7	89.117	-164.94	2000	54.828	-190.34	1965.3	46.69	-148.16
501	5	2190.6	1451.2	-219.52	2121.8	1173.3	-228.13	2319	1355.8	-198.33	2337.8	1185.6	-202.29	2266.9	1370.1	-392	2228.7	1376.3	-21.298	2135	1360.4	-93.599	2307.1	926.67	-345.87	2295.8	911.05	-99.166	2140.5	948.22	-278.22	2137.6	938.23	-199.7	2240	1001.9	-367.56	2222.5	986.29	-86.243	2349.3	699.54	-387.38	2345.5	748.57	-387.91	2308.8	721.64	-395.69	2406.8	619.14	-415.76	2441.8	497.79	-347.82	2417.7	492.47	-232.66	2205.6	677.35	-75.415	2187.1	716.36	-75.197	2226.9	717.4	-74.32	2183.8	587.54	-39.438	2157.7	439.57	-110.32	2166.3	450.66	-230.14	2432.7	415.31	-359.52	2465.3	404.1	-339.21	2444	367.84	-355.94	2472.5	291.46	-395.81	2403.6	92.857	-278.25	2412	87.589	-370.86	2071.7	323.53	-123.03	2081.4	359.94	-113.11	2108.9	335	-123.62	2028.4	237.49	-99.759	1905.1	124.45	-166.89	1915.8	136.81	-258.74	NaN	NaN	NaN	2423.3	61.383	-281.94	2426.6	54.499	-372.89	2529.8	56.041	-344.39	2512	36.521	-387.34	1846.1	150.73	-202.46	1908.7	101.29	-261.1	1908.7	92.224	-165.18	2001	55.376	-190.8	1966.1	47.879	-148.48
502	5.01	2203.5	1449.3	-222.21	2134.3	1171.2	-228.62	2331.7	1353.9	-199.97	2350.5	1183.7	-203.26	2279.6	1367.2	-393.87	2240.3	1375.7	-23.096	2147	1359.2	-96.157	2317.6	922.96	-345.7	2307.3	908.65	-98.967	2151.4	946.46	-276.96	2148.6	936.94	-198.69	2251.5	998.61	-366.94	NaN	NaN	NaN	2355.3	694.46	-385.56	2352.8	743.66	-387.1	2315.4	717.57	-394.38	2411.9	613.27	-413.59	2444.2	491.54	-344.29	2420.4	487.21	-229.08	2216.3	674.88	-75.052	2197.9	713.62	-73.956	2238.1	713.71	-73.558	2194.6	584.97	-38.746	2167.3	437.12	-109.44	2175.7	448.91	-229.16	2433.2	408.83	-355.92	2466.2	397.57	-335.64	2443.8	361.25	-351.44	2469.6	283.8	-392.17	2402.4	85.38	-273.02	2407.4	84.142	-365.32	2080.1	322.57	-122.8	2089.7	359.3	-112.57	2116.7	333.5	-123.68	2034.6	237.9	-99.446	1908.2	128.47	-166.97	1919.2	140.24	-258.83	NaN	NaN	NaN	2422.2	53.693	-277.31	2422.8	54.456	-368.88	2527.7	55.875	-343.19	2509.6	36.864	-386.41	1850.1	155.91	-202.67	1911.3	105.2	-261.43	1910.9	95.613	-165.45	2002.2	55.943	-191.14	1966.9	49.425	-148.94
503	5.02	2216.4	1447.7	-224.96	2146.8	1169.7	-229.24	2344.7	1352.1	-201.66	2363.2	1181.9	-204.32	2292.5	1364.5	-395.62	2252.1	1375.6	-24.985	2159.2	1358.5	-98.919	2327.8	919.66	-345.44	2318.9	906.31	-98.877	2162	945.47	-275.91	2159.3	935.96	-197.48	2263	995.44	-366.56	NaN	NaN	NaN	2360.6	689.87	-383.6	2359.4	739.17	-386.2	2321.6	713.37	-392.41	2414.3	607.38	-410.55	2445.9	485.86	-340.58	2423.3	482.73	-224.54	2227.4	672.45	-74.548	2210	709.55	-75.848	2248.5	711.94	-74.909	2205.6	582.31	-37.755	2178.6	434.56	-107.93	2186.8	446.85	-227.93	2433.1	403.19	-352.32	2466.7	391.55	-332.55	2443.5	355.32	-348.12	2465.1	277.38	-390.41	2399.9	79.154	-271.1	2406.8	83.428	-362.28	2087.1	323.16	-121.83	2098.1	358.8	-111.61	2125.5	331.72	-123.03	2040.4	238.94	-98.872	1912.7	133.17	-166.97	1923.8	144.73	-259.09	NaN	NaN	NaN	2420.1	48.197	-275.28	2422.6	55.031	-367.54	2527.5	56.044	-340.57	2509.9	38.18	-384.83	1855	162.04	-202.91	1914.9	109.9	-261.42	1913.9	99.934	-165.9	2003.8	56.731	-191.46	1968	51.21	-149.37
504	5.03	2229.5	1446.6	-227.61	2159.1	1168.7	-229.66	2357.8	1350.8	-203.4	2375.9	1180.5	-205.5	2305.4	1362.5	-397.44	2263.7	1375.7	-26.746	2171.2	1358.4	-101.6	2337.2	917.28	-345.06	2330.3	903.84	-98.782	2171.7	945.16	-274.55	2169.3	935.64	-196.14	2274.1	993.07	-365.54	NaN	NaN	NaN	2365.4	686.51	-381.42	2365.9	735.71	-385.78	2326.8	710.81	-389.34	2416.7	601.48	-407.5	2447.8	481.97	-337.06	2426.3	479.63	-220.02	2238.7	670.04	-74.382	2219.9	708.09	-73.632	2260.2	709.3	-74.262	2217.3	579.91	-36.732	2190.9	431.58	-106	2199.9	444.34	-225.67	2435.6	400.63	-349.5	2469.7	388.58	-329.79	2446.2	352.85	-345.87	2464.5	273.97	-389.42	2399.3	77.814	-270.52	2409.7	83.892	-361.62	2098.4	321.77	-121	2109.7	357.7	-110.56	2135.9	330.22	-121.45	2047.7	239.21	-98.282	1917.2	137.88	-166.71	1929.4	150.01	-258.56	NaN	NaN	NaN	2420	47.573	-274.66	2423.5	55.431	-367.12	2527.9	55.933	-340.11	2510.5	38.568	-384.46	1861.4	170.39	-202.79	1919.8	116.01	-261.72	1917.8	105.17	-165.75	2005.7	57.895	-191.43	1969.8	53.505	-149.76
505	5.04	2242.8	1446.4	-229.94	2170.8	1168.8	-229.24	2370.6	1350.1	-205.1	2388.2	1179.7	-206.61	2317.7	1360.9	-399.71	2275.9	1376.7	-28.299	2183.5	1358.9	-104.13	2346.4	916.53	-345.13	2341.4	902.37	-99.238	2181.2	945.77	-273.17	2178.4	934.34	-194.72	2284.3	992.05	-364.35	NaN	NaN	NaN	2371.2	684.67	-378.08	2372.5	733.31	-383.79	2332.8	709.71	-385.86	2418.1	597.43	-404.3	2454.5	482.76	-333.17	2430	479.11	-216.13	2250.2	667.57	-74.052	2231.8	705.51	-74.209	2270.5	707.31	-72.187	2230.1	577.98	-35.991	2205.3	428.77	-103.85	2215.3	441.1	-223.18	2442.2	402.73	-346.4	2475.6	390.21	-326.2	2452.2	354.69	-343.15	2472.4	277.07	-386.58	2400.8	78.871	-269.72	2410.8	84.168	-360.93	2109.7	322.47	-119.6	2122.4	357.34	-108.74	2147.7	329.39	-118.99	2056.1	241.18	-97.392	1923.6	144.66	-165.92	1936.7	156.86	-257.58	NaN	NaN	NaN	2420.5	47.468	-274.04	2424.6	55.699	-366.61	2528.6	56.191	-339.28	2511.6	39.191	-383.65	1869.7	179.4	-201.59	1925.7	122.96	-260.39	1923.1	111.48	-165.35	2008.6	59.805	-191.1	1971.7	56.702	-149.39
